# xmcd
#
# Track frame offsets: 
#        150
#        13337
#        27662
#        40402
#        52610
#        65802
#        78820
#        90652
#        102382
#        114012
#        138437
#        150840
#        162587
#        175130
#        187367
#        199690
#        214112
#        227447
#        241245
#        254277
#        266940
#        278820
#        291982
#        303810
#        315147
#
# Disc length: 4370 seconds
#
# Revision: 5
# Processed by: cddbd v1.5.2PL0 Copyright (c) Steve Scherf et al.
# Submitted via: ExactAudioCopy v1.0b1
#
DISCID=58111019
DTITLE=Various Artist - The Aristocrat Of The Blues - Disc 1
DYEAR=1997
DGENRE=Blues
TTITLE0=The Five Blazes - Chicago Boogie (mono)
TTITLE1=Tom Archia - Ice Man Blues (mono)
TTITLE2=Tom Archia - Fishin' Pole (mono)
TTITLE3=Clarence Samuels - Boogie Woogie Blues (mono)
TTITLE4=Andrew Tibbs - Bilbo Is Dead (mono)
TTITLE5=Sunnyland Slim - Johnson Machine Gun (mono)
TTITLE6=Sunnyland Slim - Fly Right, Little Girl (mono)
TTITLE7=Muddy Waters - Gypsy Woman (mono)
TTITLE8=Muddy Waters - Little Anna Mae (mono)
TTITLE9=Forrest Sykes - Forest Sykes Plays The Boogie (mono)
TTITLE10=Muddy Waters - Good Lookin' Woman (mono)
TTITLE11=Muddy Waters - Mean Disposition (mono)
TTITLE12=Sunnyland Slim - She Ain't Nowhere (mono)
TTITLE13=Sunnyland Slim - My Baby, My Baby (mono)
TTITLE14=Muddy Waters - I Can't Be Satisfied (mono)
TTITLE15=Muddy Waters - I Feel Like Going Home (mono)
TTITLE16=St. Louis Jimmy - Florida Hurricane (mono)
TTITLE17=St. Louis Jimmy - So Nice And Kind (mono)
TTITLE18=Robert Nighthawk - My Sweet Lovin' Woman (mono)
TTITLE19=Muddy Waters - Train Fare Home (mono)
TTITLE20=Muddy Waters - Kind Hearted Woman (mono)
TTITLE21=Muddy Waters - Down South Blues (mono)
TTITLE22=Muddy Waters - Sittin' Here Drinkin' (mono)
TTITLE23=Leroy Foster - Locked Out Boogie (mono)
TTITLE24=Leroy Foster - Shady Grove Blues (mono)
EXTD=
EXTT0=1.  1947\n2.  1947\n3.  1947\n4.  1947\n5.  1947\n6.  1947\n7.  
EXTT0=1947\n8.  1947\n9.  1947\n10. 1948\n11. April, 1948\n12. April, 
EXTT0=1948\n13. 1948\n14. 1948\n15. April, 1948\n16. April, 1948\n17. 
EXTT0=1948\n18. 1948\n19. November 10, 1948\n20, Autumn, 1948\n21. Aut
EXTT0=umn, 1948\n22. Autumn, 1948\n23. Autumn, 1948\n24. November 30, 
EXTT0=1948\n25. November 30, 1948
EXTT1=
EXTT2=
EXTT3=
EXTT4=
EXTT5=
EXTT6=
EXTT7=
EXTT8=
EXTT9=
EXTT10=
EXTT11=
EXTT12=
EXTT13=
EXTT14=
EXTT15=
EXTT16=
EXTT17=
EXTT18=
EXTT19=
EXTT20=
EXTT21=
EXTT22=
EXTT23=
EXTT24=
PLAYORDER=
